<svg width="129" height="129" viewBox="0 0 129 129" fill="none" xmlns="http://www.w3.org/2000/svg">
<path d="M0.419922 12.8448V9.34479C0.419922 3.54479 3.30328 0.644775 9.06995 0.644775H119.77C125.537 0.644775 128.42 3.54479 128.42 9.34479V12.8448C128.253 7.37812 125.37 4.64478 119.77 4.64478H9.06995C3.46995 4.64478 0.586589 7.37812 0.419922 12.8448Z" fill="#545353"/>
<path d="M0.419922 12.8448C0.586589 7.37812 3.46995 4.64478 9.06995 4.64478H119.77C125.37 4.64478 128.253 7.37812 128.42 12.8448V120.495C128.253 125.928 125.37 128.645 119.77 128.645H9.06995C3.46995 128.645 0.586589 125.928 0.419922 120.495V12.8448ZM107.97 42.4448L105.92 40.5448L103.17 38.5448C98.8699 35.7781 94.0033 34.3948 88.5699 34.3948C83.1033 34.3948 78.2199 35.7781 73.9199 38.5448C67.5866 41.7781 61.2533 41.7781 54.9199 38.5448C50.6199 35.7781 45.7533 34.3948 40.3199 34.3948C34.8866 34.3948 30.0199 35.7781 25.7199 38.5448L22.9699 40.5448L20.8699 42.4448C15.5033 47.8114 12.8199 54.2781 12.8199 61.8448C12.8199 69.4448 15.5033 75.9448 20.8699 81.3448H20.9699L25.5199 85.0448C25.5532 95.6781 29.3533 104.745 36.9199 112.245C39.9199 115.278 43.1866 117.695 46.7199 119.495C52.0532 122.261 57.9533 123.645 64.4199 123.645C75.1533 123.645 84.3366 119.845 91.9699 112.245L95.6199 108.145C100.687 101.478 103.253 93.7781 103.32 85.0448L107.97 81.3448C113.337 75.9448 116.02 69.4448 116.02 61.8448C116.02 54.2781 113.337 47.8114 107.97 42.4448ZM82.4199 29.3448L82.3699 28.7948C82.0699 23.9948 80.3699 19.8448 77.2699 16.3448C73.8366 12.5115 69.7199 10.5948 64.9199 10.5948C60.0866 10.5948 55.9532 12.5115 52.5199 16.3448C49.4532 19.8448 47.7699 23.9948 47.4699 28.7948L47.4199 29.3448C47.4199 29.8115 47.5199 30.2614 47.7199 30.6948C48.3199 32.1281 49.9199 33.3948 52.5199 34.4948C55.9532 35.8948 60.0866 36.5948 64.9199 36.5948C69.7199 36.5948 73.8366 35.8948 77.2699 34.4948C79.9032 33.3948 81.5366 32.1281 82.1699 30.6948L82.4199 29.3448Z" fill="#414040"/>
<path d="M107.97 42.4448C113.337 47.8114 116.02 54.2781 116.02 61.8448C116.02 69.4448 113.337 75.9448 107.97 81.3448L103.32 85.0448C103.253 93.7781 100.687 101.478 95.6199 108.145L91.9699 112.245C84.3366 119.845 75.1533 123.645 64.4199 123.645C57.9533 123.645 52.0532 122.261 46.7199 119.495C43.1866 117.695 39.9199 115.278 36.9199 112.245C29.3533 104.745 25.5532 95.6781 25.5199 85.0448L20.9699 81.3448H20.8699C15.5033 75.9448 12.8199 69.4448 12.8199 61.8448C12.8199 54.2781 15.5033 47.8114 20.8699 42.4448L22.9699 40.5448L25.7199 38.5448C30.0199 35.7781 34.8866 34.3948 40.3199 34.3948C45.7533 34.3948 50.6199 35.7781 54.9199 38.5448C61.2533 41.7781 67.5866 41.7781 73.9199 38.5448C78.2199 35.7781 83.1033 34.3948 88.5699 34.3948C94.0033 34.3948 98.8699 35.7781 103.17 38.5448L105.92 40.5448L107.97 42.4448ZM42.6699 45.3448C41.8033 45.4448 41.0366 45.8114 40.3699 46.4448C39.7366 47.0781 39.4199 47.8448 39.4199 48.7448C39.4199 49.6448 39.7366 50.4115 40.3699 51.0448C41.0366 51.6781 41.9032 52.0614 42.9699 52.1948C57.2366 53.9281 71.4366 53.8614 85.5699 51.9948C86.8033 51.9948 87.7366 51.6781 88.3699 51.0448C89.0033 50.4115 89.3199 49.6448 89.3199 48.7448C89.3199 47.8448 89.0033 47.0781 88.3699 46.4448C87.7366 45.8114 86.8033 45.4281 85.5699 45.2948C70.9033 43.9281 56.6033 43.9448 42.6699 45.3448ZM22.7699 65.6948C22.7699 68.7614 23.8532 71.3448 26.0199 73.4448C28.2199 75.6781 30.8533 76.7948 33.9199 76.7948C36.9533 76.7948 39.5866 75.6781 41.8199 73.4448C43.9533 71.3448 45.0199 68.7614 45.0199 65.6948C45.0199 62.6281 43.9533 60.0281 41.8199 57.8948C39.5866 55.7614 36.9533 54.6948 33.9199 54.6948C30.8533 54.6948 28.2199 55.7614 26.0199 57.8948C23.8532 60.0281 22.7699 62.6281 22.7699 65.6948ZM68.1699 68.7948L68.0199 68.8948C67.2532 69.6614 66.8699 70.6114 66.8699 71.7448C66.8699 72.9114 67.2866 73.9114 68.1199 74.7448L68.5199 75.0448L68.9199 75.3448C69.5199 75.7448 70.2366 75.9448 71.0699 75.9448C72.1699 75.9448 73.1033 75.5615 73.8699 74.7948L74.0199 74.5948L75.6699 72.5948C76.2366 71.7948 76.6199 70.9781 76.8199 70.1448L76.9199 69.7948C77.2199 68.3281 77.0032 67.2281 76.2699 66.4948C75.4699 65.6948 74.2533 65.5114 72.6199 65.9448C71.0866 66.4114 69.6033 67.3615 68.1699 68.7948ZM61.6699 74.7448C62.4699 73.9114 62.8699 72.9114 62.8699 71.7448C62.8699 70.6114 62.4866 69.6614 61.7199 68.8948L61.5699 68.7948C60.1699 67.3615 58.6699 66.4114 57.0699 65.9448C55.4699 65.5114 54.2533 65.6948 53.4199 66.4948C52.6866 67.2281 52.4866 68.3281 52.8199 69.7948L52.9199 70.1448C53.1199 70.9781 53.4866 71.8114 54.0199 72.6448C54.4532 73.3114 55.0033 73.9615 55.6699 74.5948L55.7699 74.7948C56.5699 75.5615 57.5366 75.9448 58.6699 75.9448C59.4699 75.9448 60.2033 75.7448 60.8699 75.3448L61.2699 75.0448L61.6699 74.7448ZM46.7199 87.9948L43.8699 88.8948C41.5699 89.6948 39.9199 91.1615 38.9199 93.2948C37.8533 95.4948 37.7199 97.6948 38.5199 99.8948C39.2866 102.195 40.7699 103.861 42.9699 104.895C44.2032 105.495 45.4532 105.795 46.7199 105.795L49.5199 105.295C60.5199 101.461 70.6032 101.395 79.7699 105.095C81.0699 105.628 82.3866 105.845 83.7199 105.745L86.3699 105.095C88.5699 104.228 90.1199 102.678 91.0199 100.445C91.9199 98.2448 91.9366 96.0281 91.0699 93.7948C90.1699 91.6281 88.6366 90.0615 86.4699 89.0948L83.7199 87.9948C72.3866 83.8948 60.0532 83.8948 46.7199 87.9948ZM106.82 65.6948C106.82 62.6281 105.737 60.0281 103.57 57.8948C101.403 55.7614 98.7699 54.6948 95.6699 54.6948C92.6366 54.6948 90.0533 55.7614 87.9199 57.8948C85.6866 60.0281 84.5699 62.6281 84.5699 65.6948C84.5699 68.7614 85.6866 71.3448 87.9199 73.4448C90.0533 75.6781 92.6366 76.7948 95.6699 76.7948C98.7699 76.7948 101.403 75.6781 103.57 73.4448C105.737 71.3448 106.82 68.7614 106.82 65.6948Z" fill="#BDB6B6"/>
<path d="M82.4199 29.3447L82.1699 30.6947C81.5366 32.128 79.9032 33.3947 77.2699 34.4947C73.8366 35.8947 69.7199 36.5947 64.9199 36.5947C60.0866 36.5947 55.9532 35.8947 52.5199 34.4947C49.9199 33.3947 48.3199 32.128 47.7199 30.6947C47.5199 30.2614 47.4199 29.8114 47.4199 29.3447L47.4699 28.7947C47.7699 23.9947 49.4532 19.8447 52.5199 16.3447C55.9532 12.5114 60.0866 10.5947 64.9199 10.5947C69.7199 10.5947 73.8366 12.5114 77.2699 16.3447C80.3699 19.8447 82.0699 23.9947 82.3699 28.7947L82.4199 29.3447Z" fill="#464545"/>
<path d="M42.6699 45.3449C56.6033 43.9449 70.9033 43.9282 85.5699 45.2949C86.8033 45.4282 87.7366 45.8115 88.3699 46.4448C89.0033 47.0782 89.3199 47.8448 89.3199 48.7448C89.3199 49.6448 89.0033 50.4115 88.3699 51.0449C87.7366 51.6782 86.8033 51.9948 85.5699 51.9948C71.4366 53.8615 57.2366 53.9282 42.9699 52.1948C41.9032 52.0615 41.0366 51.6782 40.3699 51.0449C39.7366 50.4115 39.4199 49.6448 39.4199 48.7448C39.4199 47.8448 39.7366 47.0782 40.3699 46.4448C41.0366 45.8115 41.8033 45.4449 42.6699 45.3449Z" fill="#A8A1A1"/>
<path d="M22.7699 65.6948C22.7699 62.6282 23.8532 60.0282 26.0199 57.8948C28.2199 55.7615 30.8533 54.6948 33.9199 54.6948C36.9533 54.6948 39.5866 55.7615 41.8199 57.8948C43.9533 60.0282 45.0199 62.6282 45.0199 65.6948C45.0199 68.7615 43.9533 71.3448 41.8199 73.4448C39.5866 75.6782 36.9533 76.7949 33.9199 76.7949C30.8533 76.7949 28.2199 75.6782 26.0199 73.4448C23.8532 71.3448 22.7699 68.7615 22.7699 65.6948ZM28.2199 65.9448C28.2199 67.8448 28.9032 69.4448 30.2699 70.7448C31.5366 72.1448 33.1533 72.8448 35.1199 72.8448C37.0533 72.8448 38.7033 72.1448 40.0699 70.7448C41.4366 69.4448 42.1199 67.8448 42.1199 65.9448C42.1199 63.9448 41.4366 62.2948 40.0699 60.9948C38.7033 59.6615 37.0533 58.9948 35.1199 58.9948C33.1533 58.9948 31.5366 59.6615 30.2699 60.9948C28.9032 62.2948 28.2199 63.9448 28.2199 65.9448ZM46.7199 87.9948C60.0532 83.8948 72.3866 83.8948 83.7199 87.9948C85.8199 94.2615 85.8199 100.178 83.7199 105.745C82.3866 105.845 81.0699 105.628 79.7699 105.095C70.6032 101.395 60.5199 101.462 49.5199 105.295L46.7199 105.795C44.3532 100.528 44.3532 94.5948 46.7199 87.9948ZM106.82 65.6948C106.82 68.7615 105.737 71.3448 103.57 73.4448C101.403 75.6782 98.7699 76.7949 95.6699 76.7949C92.6366 76.7949 90.0533 75.6782 87.9199 73.4448C85.6866 71.3448 84.5699 68.7615 84.5699 65.6948C84.5699 62.6282 85.6866 60.0282 87.9199 57.8948C90.0533 55.7615 92.6366 54.6948 95.6699 54.6948C98.7699 54.6948 101.403 55.7615 103.57 57.8948C105.737 60.0282 106.82 62.6282 106.82 65.6948ZM101.47 65.9448C101.47 63.9448 100.787 62.2948 99.4199 60.9948C98.0533 59.6615 96.4199 58.9948 94.5199 58.9948C92.6199 58.9948 90.9532 59.6615 89.5199 60.9948C88.1532 62.2948 87.4699 63.9448 87.4699 65.9448C87.4699 67.8448 88.1532 69.4448 89.5199 70.7448C90.9532 72.1448 92.6199 72.8448 94.5199 72.8448C96.4199 72.8448 98.0533 72.1448 99.4199 70.7448C100.787 69.4448 101.47 67.8448 101.47 65.9448Z" fill="white"/>
<path d="M68.1698 68.7947C69.6031 67.3614 71.0865 66.4114 72.6198 65.9447C74.2532 65.5114 75.4698 65.6947 76.2698 66.4947C77.0031 67.228 77.2198 68.3281 76.9198 69.7947L76.8198 70.1447C76.6198 70.978 76.2365 71.7947 75.6698 72.5947L74.0198 74.5947L73.8698 74.7947C73.1032 75.5614 72.1698 75.9447 71.0698 75.9447C70.2365 75.9447 69.5198 75.7447 68.9198 75.3447L68.5198 75.0447L68.1198 74.7447C67.2865 73.9113 66.8698 72.9113 66.8698 71.7447C66.8698 70.6113 67.2531 69.6614 68.0198 68.8947L68.1698 68.7947ZM61.6698 74.7447L61.2698 75.0447L60.8698 75.3447C60.2032 75.7447 59.4698 75.9447 58.6698 75.9447C57.5365 75.9447 56.5698 75.5614 55.7698 74.7947L55.6698 74.5947C55.0031 73.9614 54.4531 73.3114 54.0198 72.6447C53.4864 71.8114 53.1198 70.978 52.9198 70.1447L52.8198 69.7947C52.4865 68.3281 52.6865 67.228 53.4198 66.4947C54.2531 65.6947 55.4698 65.5114 57.0698 65.9447C58.6698 66.4114 60.1698 67.3614 61.5698 68.7947L61.7198 68.8947C62.4865 69.6614 62.8698 70.6113 62.8698 71.7447C62.8698 72.9113 62.4698 73.9113 61.6698 74.7447Z" fill="#989292"/>
<path d="M28.22 65.9448C28.22 63.9448 28.9033 62.2948 30.27 60.9948C31.5366 59.6614 33.1533 58.9948 35.12 58.9948C37.0533 58.9948 38.7033 59.6614 40.07 60.9948C41.4367 62.2948 42.12 63.9448 42.12 65.9448C42.12 67.8448 41.4367 69.4448 40.07 70.7448C38.7033 72.1448 37.0533 72.8448 35.12 72.8448C33.1533 72.8448 31.5366 72.1448 30.27 70.7448C28.9033 69.4448 28.22 67.8448 28.22 65.9448ZM101.47 65.9448C101.47 67.8448 100.787 69.4448 99.42 70.7448C98.0533 72.1448 96.42 72.8448 94.52 72.8448C92.62 72.8448 90.9533 72.1448 89.52 70.7448C88.1533 69.4448 87.47 67.8448 87.47 65.9448C87.47 63.9448 88.1533 62.2948 89.52 60.9948C90.9533 59.6614 92.62 58.9948 94.52 58.9948C96.42 58.9948 98.0533 59.6614 99.42 60.9948C100.787 62.2948 101.47 63.9448 101.47 65.9448Z" fill="#5B5B5B"/>
<path d="M46.7199 105.795C45.4532 105.795 44.2032 105.495 42.9699 104.895C40.7699 103.861 39.2866 102.195 38.5199 99.8948C37.7199 97.6948 37.8532 95.4948 38.9199 93.2948C39.9199 91.1615 41.5699 89.6948 43.8699 88.8948L46.7199 87.9948C44.3532 94.5948 44.3532 100.528 46.7199 105.795ZM83.7199 87.9948L86.4699 89.0948C88.6366 90.0615 90.1699 91.6281 91.0699 93.7948C91.9366 96.0281 91.9199 98.2448 91.0199 100.445C90.1199 102.678 88.5699 104.228 86.3699 105.095L83.7199 105.745C85.8199 100.178 85.8199 94.2614 83.7199 87.9948Z" fill="#E7E7E7"/>
</svg>
