<svg width="147" height="128" viewBox="0 0 147 128" fill="none" xmlns="http://www.w3.org/2000/svg">
<path d="M142.914 110.55C140.048 113.417 136.064 114.333 130.964 113.3C125.998 112.267 121.381 109.683 117.114 105.55L117.014 105.45C114.948 103.35 114.198 100.567 114.764 97.1C115.331 93.6 117.048 90.4167 119.914 87.55C122.748 84.7167 125.914 83.0167 129.414 82.45C132.914 81.85 135.698 82.6 137.764 84.7L137.864 84.8C141.998 89.0667 144.581 93.6833 145.614 98.65C146.648 103.75 145.748 107.717 142.914 110.55ZM3.11423 110.55C0.280901 107.717 -0.619111 103.75 0.414222 98.65C1.44756 93.6833 4.03089 89.0667 8.16422 84.8L8.2642 84.7C10.3309 82.6 13.1142 81.85 16.6142 82.45C20.1142 83.0167 23.2809 84.7167 26.1142 87.55C28.9809 90.4167 30.6975 93.6 31.2642 97.1C31.8309 100.567 31.0809 103.35 29.0142 105.45L28.9142 105.55C24.6476 109.683 20.0309 112.267 15.0642 113.3C9.96425 114.333 5.9809 113.417 3.11423 110.55Z" fill="#29454F"/>
<path d="M9.16425 12.2V8.7C9.16425 2.9 12.0476 0 17.8143 0H128.514C134.281 0 137.164 2.9 137.164 8.7V12.2C136.998 6.73333 134.114 4 128.514 4H17.8143C12.2143 4 9.33091 6.73333 9.16425 12.2Z" fill="#447180"/>
<path d="M9.16425 12.2C9.33091 6.73333 12.2143 4 17.8143 4H128.514C134.114 4 136.998 6.73333 137.164 12.2V119.85C136.998 125.283 134.114 128 128.514 128H112.064L110.214 125.15C107.281 120.917 104.181 117.3 100.914 114.3C92.6809 106.7 83.3642 102.9 72.9642 102.9C62.5309 102.9 53.2142 106.7 45.0142 114.3C41.7476 117.333 38.6476 120.95 35.7142 125.15L33.8143 128H17.8143C12.2143 128 9.33091 125.283 9.16425 119.85V12.2ZM119.914 47.25C118.681 42.8833 116.081 39.55 112.114 37.25C107.981 34.85 103.631 34.2667 99.0643 35.5C94.5309 36.7 91.0642 39.3833 88.6642 43.55C86.3642 47.4833 85.7476 51.6833 86.8143 56.15L86.9642 56.7C89.1309 64.7667 92.6142 71.2 97.4142 76C102.181 80.8 106.848 82.6 111.414 81.4C115.981 80.1667 119.114 76.2667 120.814 69.7C122.481 63.1667 122.231 55.8667 120.064 47.8L119.914 47.25ZM88.7142 73.9C88.2142 70.6667 86.7476 67.8167 84.3143 65.35C83.7143 64.75 83.1142 64.2333 82.5142 63.8C79.8142 61.7667 76.6976 60.75 73.1642 60.75C69.6309 60.75 66.5143 61.7667 63.8143 63.8C63.1809 64.2333 62.5642 64.75 61.9642 65.35C59.5309 67.8167 58.0643 70.6667 57.5643 73.9L57.3643 76.5L57.4142 77.55C57.6142 79.8833 59.1309 81.8833 61.9642 83.55C65.0642 85.35 68.7976 86.25 73.1642 86.25C77.5309 86.25 81.2476 85.35 84.3143 83.55C87.1476 81.8833 88.6643 79.8833 88.8643 77.55L88.9142 76.5L88.7142 73.9ZM59.5643 56.2C60.6643 51.7333 60.0476 47.5167 57.7142 43.55C55.3809 39.4167 51.9143 36.75 47.3143 35.55C42.7476 34.2833 38.3976 34.85 34.2642 37.25C30.2976 39.55 27.6809 42.8833 26.4142 47.25L26.2142 47.8C24.0809 55.8667 23.8809 63.1833 25.6143 69.75C27.3476 76.2833 30.4809 80.1833 35.0142 81.45C39.6142 82.65 44.2976 80.8333 49.0643 76C53.7976 71.2333 57.2309 64.8167 59.3643 56.75L59.5643 56.2Z" fill="#365A66"/>
<path d="M59.5643 56.2L59.3643 56.75C57.2309 64.8167 53.7976 71.2333 49.0643 76C44.2976 80.8333 39.6142 82.65 35.0142 81.45C30.4809 80.1833 27.3476 76.2833 25.6143 69.75C23.8809 63.1833 24.0809 55.8667 26.2142 47.8L26.4142 47.25C27.6809 42.8833 30.2976 39.55 34.2642 37.25C38.3976 34.85 42.7476 34.2833 47.3143 35.55C51.9143 36.75 55.3809 39.4167 57.7142 43.55C60.0476 47.5167 60.6643 51.7333 59.5643 56.2ZM119.914 47.25L120.064 47.8C122.231 55.8667 122.481 63.1667 120.814 69.7C119.114 76.2667 115.981 80.1667 111.414 81.4C106.848 82.6 102.181 80.8 97.4142 76C92.6142 71.2 89.1309 64.7667 86.9642 56.7L86.8143 56.15C85.7476 51.6833 86.3642 47.4833 88.6642 43.55C91.0642 39.3833 94.5309 36.7 99.0643 35.5C103.631 34.2667 107.981 34.85 112.114 37.25C116.081 39.55 118.681 42.8833 119.914 47.25ZM112.214 59.1C112.214 56.1667 111.181 53.6833 109.114 51.65C107.048 49.6167 104.564 48.6 101.664 48.6C98.8309 48.6 96.3476 49.6167 94.2142 51.65C92.2142 53.6833 91.2142 56.1667 91.2142 59.1C91.2142 62 92.2142 64.45 94.2142 66.45C96.3476 68.55 98.8309 69.6 101.664 69.6C104.564 69.6 107.048 68.55 109.114 66.45C111.181 64.45 112.214 62 112.214 59.1ZM33.9642 59.1C33.9642 62 34.9809 64.45 37.0142 66.45C39.0809 68.55 41.5642 69.6 44.4642 69.6C47.3309 69.6 49.8142 68.55 51.9142 66.45C53.9476 64.45 54.9642 62 54.9642 59.1C54.9642 56.1667 53.9476 53.6833 51.9142 51.65C49.8142 49.6167 47.3309 48.6 44.4642 48.6C41.5642 48.6 39.0809 49.6167 37.0142 51.65C34.9809 53.6833 33.9642 56.1667 33.9642 59.1Z" fill="#D5EEF7"/>
<path d="M33.9642 59.1C33.9642 56.1666 34.9809 53.6833 37.0142 51.65C39.0809 49.6166 41.5642 48.6 44.4642 48.6C47.3309 48.6 49.8142 49.6166 51.9142 51.65C53.9476 53.6833 54.9642 56.1666 54.9642 59.1C54.9642 62 53.9476 64.45 51.9142 66.45C49.8142 68.55 47.3309 69.6 44.4642 69.6C41.5642 69.6 39.0809 68.55 37.0142 66.45C34.9809 64.45 33.9642 62 33.9642 59.1ZM112.214 59.1C112.214 62 111.181 64.45 109.114 66.45C107.048 68.55 104.564 69.6 101.664 69.6C98.8309 69.6 96.3476 68.55 94.2142 66.45C92.2142 64.45 91.2142 62 91.2142 59.1C91.2142 56.1666 92.2142 53.6833 94.2142 51.65C96.3476 49.6166 98.8309 48.6 101.664 48.6C104.564 48.6 107.048 49.6166 109.114 51.65C111.181 53.6833 112.214 56.1666 112.214 59.1ZM107.464 61.05C107.464 59.1833 106.831 57.6333 105.564 56.4C104.264 55.1 102.698 54.45 100.864 54.45C99.0643 54.45 97.4976 55.1 96.1642 56.4C94.8976 57.6333 94.2642 59.1833 94.2642 61.05V61.7C94.3976 63.2 95.0309 64.5 96.1642 65.6C97.4976 66.8666 99.0643 67.5 100.864 67.5C102.698 67.5 104.264 66.8666 105.564 65.6C106.664 64.5 107.281 63.2 107.414 61.7L107.464 61.05ZM38.7142 61.05L38.7642 61.7C38.8642 63.2 39.4643 64.5 40.5643 65.6C41.8643 66.8666 43.4476 67.5 45.3143 67.5C47.0809 67.5 48.6309 66.8666 49.9642 65.6C51.1309 64.5 51.7643 63.2 51.8643 61.7L51.9142 61.05C51.9142 59.1833 51.2642 57.6333 49.9642 56.4C48.6309 55.1 47.0809 54.45 45.3143 54.45C43.4476 54.45 41.8643 55.1 40.5643 56.4C39.3309 57.6333 38.7142 59.1833 38.7142 61.05Z" fill="white"/>
<path d="M38.7142 61.05C38.7142 59.1834 39.3309 57.6334 40.5643 56.4C41.8643 55.1 43.4476 54.45 45.3143 54.45C47.0809 54.45 48.6309 55.1 49.9642 56.4C51.2642 57.6334 51.9142 59.1834 51.9142 61.05L51.8643 61.7C51.7643 63.2 51.1309 64.5 49.9642 65.6C48.6309 66.8667 47.0809 67.5 45.3143 67.5C43.4476 67.5 41.8643 66.8667 40.5643 65.6C39.4643 64.5 38.8642 63.2 38.7642 61.7L38.7142 61.05ZM107.464 61.05L107.414 61.7C107.281 63.2 106.664 64.5 105.564 65.6C104.264 66.8667 102.698 67.5 100.864 67.5C99.0643 67.5 97.4976 66.8667 96.1642 65.6C95.0309 64.5 94.3976 63.2 94.2642 61.7V61.05C94.2642 59.1834 94.8976 57.6334 96.1642 56.4C97.4976 55.1 99.0643 54.45 100.864 54.45C102.698 54.45 104.264 55.1 105.564 56.4C106.831 57.6334 107.464 59.1834 107.464 61.05Z" fill="#5B5B5B"/>
<path d="M57.5642 73.9C58.0642 70.6667 59.5308 67.8167 61.9642 65.35C62.5642 64.75 63.1809 64.2333 63.8142 63.8C66.5142 61.7667 69.6309 60.75 73.1642 60.75C76.6975 60.75 79.8142 61.7667 82.5142 63.8C83.1142 64.2333 83.7142 64.75 84.3142 65.35C86.7475 67.8167 88.2142 70.6667 88.7142 73.9C88.2475 75.2333 86.7809 76.4 84.3142 77.4C81.2475 78.6667 77.5309 79.3 73.1642 79.3C68.7975 79.3 65.0642 78.6667 61.9642 77.4C59.4975 76.4 58.0309 75.2333 57.5642 73.9Z" fill="#FF9900"/>
<path d="M57.5643 73.9C58.0309 75.2334 59.4976 76.4 61.9642 77.4C65.0642 78.6667 68.7976 79.3 73.1642 79.3C77.5309 79.3 81.2476 78.6667 84.3143 77.4C86.7809 76.4 88.2476 75.2334 88.7142 73.9L88.9142 76.5L88.8643 77.55C88.6643 79.8834 87.1476 81.8834 84.3143 83.55C81.2476 85.35 77.5309 86.25 73.1642 86.25C68.7976 86.25 65.0642 85.35 61.9642 83.55C59.1309 81.8834 57.6142 79.8834 57.4142 77.55L57.3643 76.5L57.5643 73.9Z" fill="#E08600"/>
<path d="M112.064 128H33.8143L35.7142 125.15C38.6476 120.95 41.7476 117.333 45.0142 114.3C53.2142 106.7 62.5309 102.9 72.9642 102.9C83.3642 102.9 92.6809 106.7 100.914 114.3C104.181 117.3 107.281 120.917 110.214 125.15L112.064 128Z" fill="#F2F9FB"/>
</svg>
